<?xml version="1.0" encoding="UTF-8" standalone="no"?>
<!-- Created with Inkscape (http://www.inkscape.org/) -->
<svg id="svg2" xmlns:rdf="http://www.w3.org/1999/02/22-rdf-syntax-ns#" xmlns="http://www.w3.org/2000/svg" height="317.43" width="309.3" version="1.1" xmlns:cc="http://creativecommons.org/ns#" xmlns:dc="http://purl.org/dc/elements/1.1/">
<metadata id="metadata8">
<rdf:RDF>
<cc:Work rdf:about="">
<dc:format>image/svg+xml</dc:format>
<dc:type rdf:resource="http://purl.org/dc/dcmitype/StillImage"/>
<dc:title/>
</cc:Work>
</rdf:RDF>
</metadata>
<path id="path2987" d="m0.00005,286.02c96.224,38.829,198.27,44.807,309.3,0-5.0801-29.789-10.943-53.252-17.691-69.565-3.7164-6.9005-9.5022-11.999-20.102-12.905l-60.885-18.421-11.624-8.8064c1.3253,19.699,1.6064,37.384-0.75808,49.967-7.3765,24.503-15.739,43.23-24.294,60.829l-3.4843-38.716c-2.3138-5.1869-4.9548-10.457-8.2194-15.884l8.9341-8.8443c1.5791-1.6029,0.8088-2.3875,0-3.1587l-11.19-12.01c-1.4235-1.3342-0.77977-1.895,0.0316-2.393,8.8045-7.7273,19.142-17.355,31.65-29.674l-2.0889-32.554c4.4319-8.427,7.9275-17.327,9.6698-27.112,1.0095,0.92818,2.1291,1.1611,3.4746-0.0319,5.9665-7.9189,7.6404-17.373,7.5493-32.29-0.003-1.7355-2.4855-3.2782-4.2529-2.5179,0.75282-13.204,3.8372-26.092,2.7052-39.568-1.4085-6.8086-2.6457-13.78-9.792-15.124-1.71-12.969-22.48-21.434-32.34-22.372-11.3-1.2186-27.18-0.1263-29.95-4.8985,0.67814,3.1919,3.0586,5.3883,5.9859,7.2649-3.973-0.1939-7.5504-0.87612-10.453-2.3916,1.5453,1.338,2.5361,2.5513,4.8867,3.5406-28.582,4.8524-21.351,18.993-30.396,24.617-4.7036,3.1249-6.2575,8.1326-5.9831,13.763l2.9483,36.009c-1.8319-2.702-4.0809-0.52486-4.333,1.1506-0.81932,14.035,2.8634,27.409,7.3363,32.515,1.2214,1.3874,2.4427,1.1342,3.6641,0,1.518,10.154,4.8757,19.037,9.5928,26.98l-2.391,33.069,31.65,29.61c1.5674,1.4714,1.0108,1.923,0,3.0434l-10.766,11.755c-0.96193,1.1011-0.97317,1.6238,0,2.5993l7.7727,7.8018c1.2964,1.3392,0.76909,1.4475,0,3.0458-2.6736,4.4504-4.9507,9.4014-7.3045,14.255l-3.0797,38.751c-13.183-25.224-24.83-57.851-25.247-63.685-0.59833-14.963-1.8142-29.003,0.0735-47.847-4.0492,3.29-8.047,6.5122-13.315,9.1578l-59.51,18.762c-12.175,1.3497-17.509,6.1147-21.479,16.145-10.829,31.36-15.027,61.37-16.296,66.12z" fill-rule="nonzero" fill="#CCC"/>
</svg>
